<svg version="1.1" id="Layer_1" xmlns="http://www.w3.org/2000/svg" xmlns:xlink="http://www.w3.org/1999/xlink" x="0px" y="0px"
	 width="100%" viewBox="0 0 1001 689" enable-background="new 0 0 1001 689" xml:space="preserve">
<path fill="#FFFFFF" opacity="1.000000" stroke="none" 
	d="
M1.000001,624.000000 
	C1.000000,416.409210 1.000000,208.818451 1.000000,1.000000 
	C178.692444,1.000000 356.384979,1.000000 534.398315,1.387500 
	C519.162292,3.742577 506.482941,10.865017 497.008087,23.342377 
	C490.553864,31.841887 484.458618,40.614388 478.219543,49.276825 
	C463.670502,69.476875 449.139587,89.689980 434.585571,109.886421 
	C425.037720,123.135880 415.570251,136.445282 405.861176,149.575806 
	C399.405884,158.305908 393.000061,166.916290 394.990326,178.742737 
	C395.467743,181.579498 394.183868,182.845428 391.339935,183.338318 
	C384.631744,184.500946 379.252716,188.161148 375.149445,193.435684 
	C369.589661,200.582474 364.309296,207.948761 358.983276,215.274841 
	C348.235931,230.058060 337.521698,244.865463 326.827911,259.687500 
	C321.448608,267.143372 316.762604,274.894592 318.028748,284.673309 
	C318.382812,287.407654 316.767273,288.005585 314.746796,289.092926 
	C309.964233,291.666779 304.813904,294.098175 301.008759,297.812836 
	C296.060547,302.643311 292.126923,308.555634 288.011414,314.188477 
	C277.231567,328.942657 266.567871,343.781952 255.899200,358.617035 
	C243.303558,376.131653 238.103394,394.982574 246.012192,415.998596 
	C248.437317,422.442810 251.283752,428.729828 253.984390,435.068756 
	C262.524933,455.115051 270.893188,475.238403 279.752991,495.142853 
	C282.654083,501.660461 286.854767,507.599640 291.155609,514.998047 
	C256.084198,514.998047 221.708237,515.087830 187.333160,514.952209 
	C174.248077,514.900574 161.166031,514.136841 148.080688,514.068909 
	C139.846237,514.026245 131.511353,514.028687 123.407516,515.247498 
	C118.411850,515.998840 113.870369,517.247803 108.911850,515.130859 
	C106.610374,514.148254 103.809814,514.061707 101.232269,514.044189 
	C87.068367,513.947571 72.893440,513.670166 58.742100,514.102661 
	C47.613503,514.442810 37.264534,521.436707 32.998909,532.692017 
	C28.800358,543.770325 24.535585,554.826172 20.538839,565.977478 
	C15.838861,579.090881 11.344044,592.278748 6.865052,605.469910 
	C4.782483,611.603271 2.947318,617.820679 1.000001,624.000000 
z"/>
<path fill="#010101" opacity="1.000000" stroke="none" 
	d="
M1.000001,624.464661 
	C2.947318,617.820679 4.782483,611.603271 6.865052,605.469910 
	C11.344044,592.278748 15.838861,579.090881 20.538839,565.977478 
	C24.535585,554.826172 28.800358,543.770325 32.998909,532.692017 
	C37.264534,521.436707 47.613503,514.442810 58.742100,514.102661 
	C72.893440,513.670166 87.068367,513.947571 101.232269,514.044189 
	C103.809814,514.061707 106.610374,514.148254 108.911850,515.130859 
	C113.870369,517.247803 118.411850,515.998840 123.407516,515.247498 
	C131.511353,514.028687 139.846237,514.026245 148.080688,514.068909 
	C161.166031,514.136841 174.248077,514.900574 187.333160,514.952209 
	C221.708237,515.087830 256.084198,514.998047 291.155609,514.998047 
	C286.854767,507.599640 282.654083,501.660461 279.752991,495.142853 
	C270.893188,475.238403 262.524933,455.115051 253.984390,435.068756 
	C251.283752,428.729828 248.437317,422.442810 246.012192,415.998596 
	C238.103394,394.982574 243.303558,376.131653 255.899200,358.617035 
	C266.567871,343.781952 277.231567,328.942657 288.011414,314.188477 
	C292.126923,308.555634 296.060547,302.643311 301.008759,297.812836 
	C304.813904,294.098175 309.964233,291.666779 314.746796,289.092926 
	C316.767273,288.005585 318.382812,287.407654 318.028748,284.673309 
	C316.762604,274.894592 321.448608,267.143372 326.827911,259.687500 
	C337.521698,244.865463 348.235931,230.058060 358.983276,215.274841 
	C364.309296,207.948761 369.589661,200.582474 375.149445,193.435684 
	C379.252716,188.161148 384.631744,184.500946 391.339935,183.338318 
	C394.183868,182.845428 395.467743,181.579498 394.990326,178.742737 
	C393.000061,166.916290 399.405884,158.305908 405.861176,149.575806 
	C415.570251,136.445282 425.037720,123.135880 434.585571,109.886421 
	C449.139587,89.689980 463.670502,69.476875 478.219543,49.276825 
	C484.458618,40.614388 490.553864,31.841887 497.008087,23.342377 
	C506.482941,10.865017 519.162292,3.742577 534.859497,1.387500 
	C540.354919,1.000000 545.709900,1.000000 551.668823,1.384303 
	C563.669128,3.170214 573.454468,7.916977 582.083496,15.485377 
	C589.597778,22.076078 594.893127,30.226496 599.363831,38.937580 
	C605.495483,50.885159 614.573120,61.810894 612.964722,75.957726 
	C616.366455,78.453354 620.072876,80.102104 622.182495,82.938545 
	C626.874146,89.246506 630.980591,96.024620 634.935730,102.837440 
	C641.306091,113.810478 647.575562,124.853577 653.491150,136.076080 
	C659.537354,147.546555 667.849060,158.297241 666.148804,172.563400 
	C666.011597,173.714310 667.797119,175.269974 668.946838,176.367584 
	C673.382996,180.602386 678.858154,184.091171 682.223206,189.031494 
	C688.448730,198.171402 693.569580,208.077316 698.955566,217.772476 
	C707.768616,233.636612 716.348816,249.630157 725.167847,265.490906 
	C736.259155,285.438324 747.498657,305.303284 758.661194,325.211121 
	C765.026611,336.563660 771.450317,347.884796 777.690125,359.306152 
	C782.665283,368.412476 786.419922,378.023499 786.941589,388.497650 
	C787.555298,400.821289 784.021423,412.340210 777.621399,422.633545 
	C764.618408,443.546783 751.050781,464.109711 737.653809,484.776794 
	C733.108093,491.789307 726.796265,496.045990 718.303406,497.095337 
	C714.819946,497.525787 711.804504,498.738007 711.655457,503.519623 
	C711.549500,506.917480 709.949585,510.268768 708.917603,513.998047 
	C720.075500,513.998047 730.893921,513.811951 741.702332,514.061401 
	C749.321228,514.237183 756.422363,516.226440 761.758484,522.256897 
	C764.006714,524.797546 766.261841,527.331970 768.533081,529.890930 
	C774.997375,519.589783 783.911926,513.962891 796.212036,513.975525 
	C848.024109,514.028809 899.836304,513.970459 951.648254,514.055725 
	C955.370300,514.061890 959.168396,514.557617 962.798767,515.397583 
	C977.622986,518.827393 987.306885,528.802612 993.794617,541.770203 
	C997.440613,549.057800 999.323059,557.227600 1002.000000,565.000000 
	C1002.000000,571.687622 1002.000000,578.375305 1001.615479,585.668091 
	C1000.968079,587.873901 1000.776489,589.490173 1000.431213,591.072937 
	C996.592102,608.673035 986.157043,621.953064 972.041809,632.269470 
	C959.169312,641.677490 944.843567,647.557617 928.328979,647.087097 
	C913.966187,646.677917 899.582458,647.001953 885.942932,647.001953 
	C882.573853,656.099670 880.019836,663.862000 876.839417,671.358521 
	C873.135681,680.088440 867.020691,686.587769 857.391602,688.779907 
	C854.010376,689.549683 850.468506,689.613647 847.000000,690.000000 
	C835.645752,690.000000 824.291565,690.000000 812.303589,689.594055 
	C804.333557,689.277344 797.143311,688.927368 790.471497,685.128906 
	C788.989014,684.284851 786.564697,684.702026 784.669922,685.054260 
	C780.280090,685.870361 775.971069,687.114685 771.587708,687.972900 
	C767.419312,688.789001 763.197998,689.335144 759.000000,690.000000 
	C753.311951,690.000000 747.623962,690.000000 741.299805,689.591797 
	C733.850952,689.123047 727.026978,689.286682 720.228271,688.946960 
	C711.078979,688.489746 701.715332,688.666504 692.883728,686.646790 
	C685.634827,684.988953 679.316162,683.155945 672.461548,687.632019 
	C669.889099,689.311707 666.187073,689.261536 663.000000,690.000000 
	C645.979126,690.000000 628.958191,690.000000 611.336060,689.618774 
	C603.310181,688.780396 597.276672,685.355713 591.929260,680.447144 
	C588.302612,677.118103 584.653625,673.813354 582.069153,671.458679 
	C576.679565,676.825073 572.472473,682.015808 567.262268,685.839661 
	C563.944275,688.274841 559.138611,688.682922 555.000000,690.000000 
	C524.979126,690.000000 494.958221,690.000000 464.307678,689.596985 
	C460.128479,688.806519 456.557129,687.963074 453.034149,688.131348 
	C446.674194,688.435181 440.343140,689.343872 434.000000,690.000000 
	C403.979095,690.000000 373.958221,690.000000 343.308289,689.597412 
	C338.968536,688.800354 335.237457,687.954163 331.551910,688.120117 
	C326.350281,688.354309 321.182343,689.337219 316.000000,690.000000 
	C234.979111,690.000000 153.958206,690.000000 72.304230,689.594482 
	C63.471409,688.126831 55.082294,687.828369 47.109589,685.850891 
	C27.846949,681.073364 12.719707,670.674683 5.176214,651.435059 
	C3.468798,647.080322 2.375802,642.484741 0.999997,638.000000 
	C1.000000,633.643127 1.000000,629.286194 1.000001,624.464661 
M431.037781,191.404846 
	C445.924530,220.220444 460.855652,249.013245 475.689301,277.856140 
	C512.662781,349.748199 549.621765,421.647766 586.458679,493.609772 
	C588.507385,497.612000 591.066040,499.006714 595.412720,498.982361 
	C617.907227,498.856445 640.403076,498.968201 662.898499,498.993286 
	C669.171814,499.000275 675.445068,498.994354 682.877380,498.994354 
	C680.389221,494.059326 678.760071,490.630737 676.962952,487.292542 
	C623.340820,387.688599 569.709961,288.089294 516.052795,188.504211 
	C511.028259,179.178909 511.616089,170.351196 517.865356,161.838394 
	C523.383972,154.320831 528.877502,146.784790 534.377930,139.253876 
	C549.798096,118.141289 565.175964,96.997620 580.676208,75.944016 
	C583.132385,72.607819 583.555786,69.850914 581.200867,66.119499 
	C576.944397,59.375183 573.459961,52.148273 569.323059,45.322975 
	C557.297241,25.482342 531.745911,24.407688 518.145447,43.283634 
	C489.429016,83.138870 460.849152,123.092712 432.280609,163.054230 
	C422.772705,176.353806 422.866638,176.420959 431.037781,191.404846 
M380.037659,349.401703 
	C394.074951,377.327881 408.003662,405.309479 422.204193,433.152405 
	C427.712219,443.951904 427.022430,453.808716 419.702271,463.451141 
	C412.758392,472.597961 406.041443,481.917877 399.283600,491.204529 
	C397.855164,493.167511 396.682434,495.316528 394.748657,498.408264 
	C445.488129,498.408264 495.139374,498.408264 545.957642,498.408264 
	C496.422943,402.220673 447.382874,306.993561 398.224579,211.536911 
	C397.164398,212.435242 396.709015,212.689682 396.433594,213.073318 
	C380.418915,235.381851 364.365479,257.663239 348.545532,280.109192 
	C347.552063,281.518738 347.663330,284.582550 348.494141,286.269104 
	C358.779846,307.149261 369.294861,327.916534 380.037659,349.401703 
M620.217468,253.729614 
	C616.740234,258.608826 613.491272,263.674622 609.707336,268.303101 
	C607.091736,271.502411 607.202515,274.015442 609.117065,277.553711 
	C637.997375,330.926605 666.731567,384.378479 695.507874,437.807678 
	C701.069214,448.133423 706.663818,458.441254 712.419189,469.083069 
	C713.317566,468.037933 713.932129,467.471436 714.370483,466.791382 
	C727.439941,446.517670 740.778687,426.409210 753.421875,405.872620 
	C759.446594,396.086609 758.683777,385.563995 753.085632,375.497223 
	C722.373596,320.269958 691.666016,265.040222 660.925720,209.828735 
	C659.690735,207.610657 658.140991,205.567871 656.506653,203.093307 
	C644.284363,220.159561 632.468506,236.658279 620.217468,253.729614 
M143.582275,623.182251 
	C153.170700,596.721313 162.759140,570.260376 172.593430,543.120911 
	C158.064224,543.120911 144.750443,543.041016 131.441330,543.253967 
	C130.212967,543.273621 128.451569,544.919373 127.901100,546.218384 
	C125.706779,551.396362 123.878418,556.730225 121.942543,562.016663 
	C113.914520,583.939514 105.896683,605.866028 97.770332,628.077576 
	C95.126938,627.746643 92.663536,627.519165 90.228691,627.118164 
	C83.085831,625.941956 80.478889,622.736145 81.064392,615.504944 
	C81.317810,612.375061 81.729721,609.173218 82.678841,606.198364 
	C88.525574,587.872864 94.567535,569.609741 100.484711,551.306458 
	C101.308350,548.758789 101.802284,546.104614 102.542984,543.120422 
	C88.810532,543.120422 75.989746,543.025879 63.174637,543.252563 
	C61.740040,543.277954 59.532269,544.829102 59.039619,546.170837 
	C49.731701,571.520203 40.187252,596.797607 31.652727,622.410217 
	C26.772251,637.056702 32.721043,648.529297 46.655800,655.156982 
	C55.701614,659.459473 65.398811,660.804688 75.244949,660.834106 
	C112.899529,660.946838 150.554642,660.883301 188.209549,660.867981 
	C189.869156,660.867310 191.548676,660.486816 193.184158,660.644287 
	C196.604706,660.973572 198.112076,659.305054 199.223755,656.242981 
	C210.141052,626.170959 221.219986,596.157715 232.158218,566.093201 
	C234.793854,558.849060 237.078949,551.477417 239.748734,543.496277 
	C226.148758,543.496277 213.529099,543.595581 200.913162,543.423645 
	C197.904099,543.382690 196.654434,544.327393 195.634338,547.191833 
	C189.240479,565.145691 182.600922,583.012146 176.028458,600.902283 
	C172.564545,610.330994 169.071884,619.749084 165.685852,628.918396 
	C157.415665,628.918396 149.794388,628.918396 141.852264,628.918396 
	C142.359573,627.070740 142.792709,625.493286 143.582275,623.182251 
M664.441162,546.910706 
	C659.234741,545.556580 654.040588,543.089600 648.819885,543.032166 
	C619.009888,542.703735 589.192444,543.096680 559.380371,542.868530 
	C553.772522,542.825623 550.944031,544.313110 548.986511,549.833862 
	C536.796326,584.213989 524.214417,618.455200 511.800354,652.756226 
	C510.983948,655.011963 510.482727,657.381775 509.708038,660.152405 
	C523.831299,660.152405 537.304138,660.235168 550.771973,660.012329 
	C551.994507,659.992126 553.764587,658.236084 554.294250,656.896240 
	C557.398987,649.042358 560.169983,641.057434 563.136597,633.147827 
	C564.779297,628.768066 566.583801,624.448975 568.481995,619.684326 
	C570.308899,621.184326 571.501160,622.071533 572.590088,623.071350 
	C584.478088,633.985718 596.421448,644.841553 608.183472,655.890320 
	C611.808167,659.295227 615.762146,660.973511 620.717773,660.916931 
	C631.524414,660.793518 642.333923,660.931091 653.141235,660.841614 
	C655.810608,660.819519 658.476196,660.336487 662.422852,659.935303 
	C648.166016,645.114319 634.936096,631.360840 621.495667,617.388550 
	C630.424561,615.491638 638.679260,614.298645 646.588684,611.945251 
	C665.247131,606.393738 674.782593,595.095032 675.474426,577.224670 
	C675.903137,566.150818 674.464478,555.216064 664.441162,546.910706 
M364.535797,477.028198 
	C370.733276,468.771118 376.772491,460.387787 383.209167,452.321594 
	C385.645142,449.268890 385.773163,446.899536 384.085968,443.457886 
	C365.862213,406.284363 347.805878,369.028778 329.678741,331.807861 
	C327.389343,327.107025 324.956238,322.476196 322.234558,317.113037 
	C320.340485,319.437866 319.022980,320.894196 317.883270,322.478424 
	C304.369141,341.263672 290.850739,360.046021 277.399689,378.876434 
	C270.532013,388.490692 269.706512,398.762970 274.369415,409.573090 
	C283.845886,431.542725 293.215637,453.558716 302.790497,475.485260 
	C305.042480,480.642303 307.621307,485.716736 310.612640,490.475342 
	C314.216125,496.207672 319.749146,499.025116 326.620514,499.002563 
	C332.615265,498.982880 338.625732,499.242249 344.596130,498.860443 
	C346.556671,498.735107 348.968292,497.439911 350.219543,495.902924 
	C355.051361,489.967773 359.497620,483.718781 364.535797,477.028198 
M285.976807,591.389954 
	C282.184387,595.041504 278.391937,598.693054 274.599518,602.344543 
	C274.326843,602.168701 274.054169,601.992859 273.781494,601.816956 
	C277.189392,592.558289 280.597290,583.299561 284.020111,574.000305 
	C305.323700,574.000305 326.310486,574.160889 347.289703,573.834839 
	C350.604370,573.783386 354.799988,572.418213 357.007721,570.133362 
	C363.348846,563.570557 368.917297,556.255554 374.694794,549.159119 
	C375.784637,547.820496 376.438568,546.126831 377.591827,544.063538 
	C371.715668,543.719666 366.611420,543.158081 361.507904,543.164551 
	C326.538300,543.209106 291.568848,543.427734 256.599365,543.427612 
	C252.280289,543.427551 250.257721,545.005737 248.786057,549.095825 
	C236.327423,583.720459 223.617935,618.254700 211.038452,652.836060 
	C210.156525,655.260498 209.710922,657.843689 209.075684,660.301697 
	C209.889572,660.594604 210.199646,660.803650 210.509918,660.803955 
	C243.991226,660.833740 277.472809,660.909607 310.953552,660.779602 
	C314.828156,660.764587 319.921539,660.939941 322.345795,658.724548 
	C330.257935,651.494141 337.255676,643.251465 344.444366,635.253601 
	C345.536041,634.039062 345.774170,632.057312 346.653564,629.796875 
	C318.675873,629.796875 291.457764,629.796875 263.682220,629.796875 
	C264.551544,627.409546 265.495209,625.627625 265.830231,623.737854 
	C266.650757,619.109070 269.133453,617.852966 273.785828,618.023804 
	C284.765137,618.427002 295.774475,618.332886 306.759674,618.019348 
	C309.322052,617.946289 312.384125,616.809326 314.278595,615.114075 
	C322.582153,607.683594 330.563629,599.891663 338.604340,592.170776 
	C340.028107,590.803650 341.177612,589.151001 343.126801,586.828003 
	C326.626251,586.828003 311.488831,586.591248 296.369781,587.012939 
	C293.049805,587.105530 289.795105,589.539551 285.976807,591.389954 
M775.968567,594.462402 
	C773.970825,599.555176 772.187744,604.745422 769.928894,609.719604 
	C765.755554,618.909668 759.220703,625.838989 749.185852,628.404419 
	C745.071350,629.456360 740.636902,629.275146 736.344360,629.608459 
	C726.011841,630.410889 718.069824,621.274109 720.798340,611.225220 
	C723.751038,600.351074 727.135193,589.588867 730.544922,578.845703 
	C734.287842,567.052551 738.274597,555.336853 742.268005,543.245483 
	C727.498657,543.245483 713.524841,543.245483 699.455872,543.245483 
	C698.707703,544.762207 697.808105,546.177429 697.279175,547.719849 
	C690.129150,568.565796 682.559387,589.286682 676.174133,610.365845 
	C673.931335,617.769775 673.761353,626.110535 674.187195,633.939636 
	C674.790344,645.030579 680.882690,652.977905 691.834717,656.147705 
	C698.016846,657.937012 704.429138,659.597351 710.806946,659.911316 
	C726.255005,660.671936 741.744629,660.860840 757.215759,660.805908 
	C771.674683,660.754578 784.723022,656.038940 793.762634,644.515198 
	C800.445801,635.995483 806.501038,626.586426 810.814392,616.692261 
	C818.358398,599.387451 824.377502,581.416077 830.974670,563.701294 
	C833.328064,557.381897 835.504578,550.996643 838.204773,543.394409 
	C823.866455,543.394409 810.604797,543.247681 797.356018,543.594543 
	C795.833313,543.634399 793.697510,546.167114 793.006653,547.985107 
	C787.237000,563.166504 781.739258,578.451355 775.968567,594.462402 
M358.711243,636.205078 
	C354.097900,642.097168 349.389343,647.918701 344.933777,653.927734 
	C343.721771,655.562256 343.272369,657.762207 342.399445,659.881165 
	C343.901398,660.230591 344.382629,660.438477 344.864990,660.441162 
	C372.161957,660.593689 399.459778,660.649536 426.755585,660.913208 
	C435.306519,660.995789 441.681580,657.708984 446.465729,650.614136 
	C449.072540,646.748291 452.388855,643.360840 455.987610,639.033203 
	C457.163696,645.314697 458.012024,650.548523 459.174866,655.711548 
	C459.642029,657.786011 459.780548,660.340332 463.230743,660.302612 
	C475.470612,660.169006 487.712830,660.250549 500.479126,660.250549 
	C500.347748,657.879517 500.386414,656.257080 500.150574,654.675598 
	C497.284973,635.460022 494.689056,616.197021 491.385986,597.056335 
	C488.712280,581.562378 485.343628,566.179932 481.934631,550.825500 
	C480.635681,544.974792 477.321075,542.854065 471.511597,542.861938 
	C460.857361,542.876465 450.196320,542.755493 439.553680,543.132202 
	C436.792358,543.229919 433.559448,544.329163 431.471619,546.077271 
	C427.426910,549.463806 423.715668,553.380066 420.436218,557.527466 
	C399.908020,583.488831 379.537048,609.574463 358.711243,636.205078 
M875.500000,543.000122 
	C868.169556,543.000549 860.834045,543.163330 853.510742,542.934265 
	C849.745178,542.816406 848.089844,544.247498 846.805359,547.812073 
	C834.054504,583.195740 821.084167,618.500183 808.202087,653.836609 
	C807.539978,655.652771 807.115845,657.555786 806.371155,660.148560 
	C819.913635,660.148560 832.830811,660.032654 845.743530,660.222107 
	C849.419189,660.276062 850.887390,658.722351 852.036499,655.461670 
	C856.274719,643.435669 860.811096,631.514709 865.383911,619.152344 
	C884.203918,619.152344 902.858032,619.428528 921.496216,619.005554 
	C928.206299,618.853271 935.195740,617.949707 941.512756,615.792847 
	C969.573059,606.212158 981.142151,578.137146 967.541382,553.997437 
	C963.306274,546.480652 957.182556,542.748718 948.466064,542.809937 
	C924.478149,542.978333 900.488770,542.950378 875.500000,543.000122 
M628.625305,180.117203 
	C630.343750,177.664291 631.865540,175.039490 633.825745,172.798019 
	C636.906372,169.275406 636.712463,166.082977 634.426270,162.100769 
	C626.065796,147.537933 618.052856,132.776108 609.814514,118.142456 
	C607.315918,113.704262 604.511902,109.438034 601.646118,104.764099 
	C600.201477,106.290703 599.052063,107.271233 598.183960,108.457611 
	C584.035278,127.793983 569.980286,147.199341 555.747925,166.473816 
	C553.151733,169.989792 552.841858,172.961914 555.014771,176.846970 
	C564.913574,194.545547 574.567749,212.380905 584.344177,230.148209 
	C585.098328,231.518814 586.118225,232.743210 587.684082,235.000793 
	C601.550781,216.401627 614.865723,198.542557 628.625305,180.117203 
z"/>
<path fill="#FFFFFF" opacity="1.000000" stroke="none" 
	d="
M1002.000000,564.531372 
	C999.323059,557.227600 997.440613,549.057800 993.794617,541.770203 
	C987.306885,528.802612 977.622986,518.827393 962.798767,515.397583 
	C959.168396,514.557617 955.370300,514.061890 951.648254,514.055725 
	C899.836304,513.970459 848.024109,514.028809 796.212036,513.975525 
	C783.911926,513.962891 774.997375,519.589783 768.533081,529.890930 
	C766.261841,527.331970 764.006714,524.797546 761.758484,522.256897 
	C756.422363,516.226440 749.321228,514.237183 741.702332,514.061401 
	C730.893921,513.811951 720.075500,513.998047 708.917603,513.998047 
	C709.949585,510.268768 711.549500,506.917480 711.655457,503.519623 
	C711.804504,498.738007 714.819946,497.525787 718.303406,497.095337 
	C726.796265,496.045990 733.108093,491.789307 737.653809,484.776794 
	C751.050781,464.109711 764.618408,443.546783 777.621399,422.633545 
	C784.021423,412.340210 787.555298,400.821289 786.941589,388.497650 
	C786.419922,378.023499 782.665283,368.412476 777.690125,359.306152 
	C771.450317,347.884796 765.026611,336.563660 758.661194,325.211121 
	C747.498657,305.303284 736.259155,285.438324 725.167847,265.490906 
	C716.348816,249.630157 707.768616,233.636612 698.955566,217.772476 
	C693.569580,208.077316 688.448730,198.171402 682.223206,189.031494 
	C678.858154,184.091171 673.382996,180.602386 668.946838,176.367584 
	C667.797119,175.269974 666.011597,173.714310 666.148804,172.563400 
	C667.849060,158.297241 659.537354,147.546555 653.491150,136.076080 
	C647.575562,124.853577 641.306091,113.810478 634.935730,102.837440 
	C630.980591,96.024620 626.874146,89.246506 622.182495,82.938545 
	C620.072876,80.102104 616.366455,78.453354 612.964722,75.957726 
	C614.573120,61.810894 605.495483,50.885159 599.363831,38.937580 
	C594.893127,30.226496 589.597778,22.076078 582.083496,15.485377 
	C573.454468,7.916977 563.669128,3.170214 552.136414,1.384303 
	C701.935242,1.000000 851.870544,1.000000 1002.000000,1.000000 
	C1002.000000,188.687515 1002.000000,376.375092 1002.000000,564.531372 
z"/>
<path fill="#FFFFFF" opacity="1.000000" stroke="none" 
	d="
M847.468628,690.000000 
	C850.468506,689.613647 854.010376,689.549683 857.391602,688.779907 
	C867.020691,686.587769 873.135681,680.088440 876.839417,671.358521 
	C880.019836,663.862000 882.573853,656.099670 885.942932,647.001953 
	C899.582458,647.001953 913.966187,646.677917 928.328979,647.087097 
	C944.843567,647.557617 959.169312,641.677490 972.041809,632.269470 
	C986.157043,621.953064 996.592102,608.673035 1000.431213,591.072937 
	C1000.776489,589.490173 1000.968079,587.873901 1001.615479,586.136597 
	C1002.000000,620.608032 1002.000000,655.216003 1002.000000,690.000000 
	C950.645935,690.000000 899.291626,690.000000 847.468628,690.000000 
z"/>
<path fill="#FFFFFF" opacity="1.000000" stroke="none" 
	d="
M0.999997,638.468628 
	C2.375802,642.484741 3.468798,647.080322 5.176214,651.435059 
	C12.719707,670.674683 27.846949,681.073364 47.109589,685.850891 
	C55.082294,687.828369 63.471409,688.126831 71.835571,689.594482 
	C48.417820,690.000000 24.835636,690.000000 1.000000,690.000000 
	C1.000000,672.979919 1.000000,655.958618 0.999997,638.468628 
z"/>
<path fill="#FFFFFF" opacity="1.000000" stroke="none" 
	d="
M555.468628,690.000000 
	C559.138611,688.682922 563.944275,688.274841 567.262268,685.839661 
	C572.472473,682.015808 576.679565,676.825073 582.069153,671.458679 
	C584.653625,673.813354 588.302612,677.118103 591.929260,680.447144 
	C597.276672,685.355713 603.310181,688.780396 610.867371,689.618774 
	C592.645752,690.000000 574.291565,690.000000 555.468628,690.000000 
z"/>
<path fill="#FFFFFF" opacity="1.000000" stroke="none" 
	d="
M663.468628,690.000000 
	C666.187073,689.261536 669.889099,689.311707 672.461548,687.632019 
	C679.316162,683.155945 685.634827,684.988953 692.883728,686.646790 
	C701.715332,688.666504 711.078979,688.489746 720.228271,688.946960 
	C727.026978,689.286682 733.850952,689.123047 740.831787,689.591797 
	C715.312439,690.000000 689.624878,690.000000 663.468628,690.000000 
z"/>
<path fill="#FFFFFF" opacity="1.000000" stroke="none" 
	d="
M759.468628,690.000000 
	C763.197998,689.335144 767.419312,688.789001 771.587708,687.972900 
	C775.971069,687.114685 780.280090,685.870361 784.669922,685.054260 
	C786.564697,684.702026 788.989014,684.284851 790.471497,685.128906 
	C797.143311,688.927368 804.333557,689.277344 811.834961,689.594055 
	C794.645752,690.000000 777.291565,690.000000 759.468628,690.000000 
z"/>
<path fill="#FFFFFF" opacity="1.000000" stroke="none" 
	d="
M434.468658,690.000000 
	C440.343140,689.343872 446.674194,688.435181 453.034149,688.131348 
	C456.557129,687.963074 460.128479,688.806519 463.838989,689.596985 
	C454.312439,690.000000 444.624878,690.000000 434.468658,690.000000 
z"/>
<path fill="#FFFFFF" opacity="1.000000" stroke="none" 
	d="
M316.468658,690.000000 
	C321.182343,689.337219 326.350281,688.354309 331.551910,688.120117 
	C335.237457,687.954163 338.968536,688.800354 342.839661,689.597412 
	C334.312439,690.000000 325.624878,690.000000 316.468658,690.000000 
z"/>
<path fill="#EC1C24" opacity="1.000000" stroke="none" 
	d="
M430.892212,191.062103 
	C422.866638,176.420959 422.772705,176.353806 432.280609,163.054230 
	C460.849152,123.092712 489.429016,83.138870 518.145447,43.283634 
	C531.745911,24.407688 557.297241,25.482342 569.323059,45.322975 
	C573.459961,52.148273 576.944397,59.375183 581.200867,66.119499 
	C583.555786,69.850914 583.132385,72.607819 580.676208,75.944016 
	C565.175964,96.997620 549.798096,118.141289 534.377930,139.253876 
	C528.877502,146.784790 523.383972,154.320831 517.865356,161.838394 
	C511.616089,170.351196 511.028259,179.178909 516.052795,188.504211 
	C569.709961,288.089294 623.340820,387.688599 676.962952,487.292542 
	C678.760071,490.630737 680.389221,494.059326 682.877380,498.994354 
	C675.445068,498.994354 669.171814,499.000275 662.898499,498.993286 
	C640.403076,498.968201 617.907227,498.856445 595.412720,498.982361 
	C591.066040,499.006714 588.507385,497.612000 586.458679,493.609772 
	C549.621765,421.647766 512.662781,349.748199 475.689301,277.856140 
	C460.855652,249.013245 445.924530,220.220444 430.892212,191.062103 
z"/>
<path fill="#EC1C24" opacity="1.000000" stroke="none" 
	d="
M379.894226,349.057281 
	C369.294861,327.916534 358.779846,307.149261 348.494141,286.269104 
	C347.663330,284.582550 347.552063,281.518738 348.545532,280.109192 
	C364.365479,257.663239 380.418915,235.381851 396.433594,213.073318 
	C396.709015,212.689682 397.164398,212.435242 398.224579,211.536911 
	C447.382874,306.993561 496.422943,402.220673 545.957642,498.408264 
	C495.139374,498.408264 445.488129,498.408264 394.748657,498.408264 
	C396.682434,495.316528 397.855164,493.167511 399.283600,491.204529 
	C406.041443,481.917877 412.758392,472.597961 419.702271,463.451141 
	C427.022430,453.808716 427.712219,443.951904 422.204193,433.152405 
	C408.003662,405.309479 394.074951,377.327881 379.894226,349.057281 
z"/>
<path fill="#EC1C24" opacity="1.000000" stroke="none" 
	d="
M620.435059,253.443298 
	C632.468506,236.658279 644.284363,220.159561 656.506653,203.093307 
	C658.140991,205.567871 659.690735,207.610657 660.925720,209.828735 
	C691.666016,265.040222 722.373596,320.269958 753.085632,375.497223 
	C758.683777,385.563995 759.446594,396.086609 753.421875,405.872620 
	C740.778687,426.409210 727.439941,446.517670 714.370483,466.791382 
	C713.932129,467.471436 713.317566,468.037933 712.419189,469.083069 
	C706.663818,458.441254 701.069214,448.133423 695.507874,437.807678 
	C666.731567,384.378479 637.997375,330.926605 609.117065,277.553711 
	C607.202515,274.015442 607.091736,271.502411 609.707336,268.303101 
	C613.491272,263.674622 616.740234,258.608826 620.435059,253.443298 
z"/>
<path fill="#FDFDFD" opacity="1.000000" stroke="none" 
	d="
M143.404053,623.549011 
	C142.792709,625.493286 142.359573,627.070740 141.852264,628.918396 
	C149.794388,628.918396 157.415665,628.918396 165.685852,628.918396 
	C169.071884,619.749084 172.564545,610.330994 176.028458,600.902283 
	C182.600922,583.012146 189.240479,565.145691 195.634338,547.191833 
	C196.654434,544.327393 197.904099,543.382690 200.913162,543.423645 
	C213.529099,543.595581 226.148758,543.496277 239.748734,543.496277 
	C237.078949,551.477417 234.793854,558.849060 232.158218,566.093201 
	C221.219986,596.157715 210.141052,626.170959 199.223755,656.242981 
	C198.112076,659.305054 196.604706,660.973572 193.184158,660.644287 
	C191.548676,660.486816 189.869156,660.867310 188.209549,660.867981 
	C150.554642,660.883301 112.899529,660.946838 75.244949,660.834106 
	C65.398811,660.804688 55.701614,659.459473 46.655800,655.156982 
	C32.721043,648.529297 26.772251,637.056702 31.652727,622.410217 
	C40.187252,596.797607 49.731701,571.520203 59.039619,546.170837 
	C59.532269,544.829102 61.740040,543.277954 63.174637,543.252563 
	C75.989746,543.025879 88.810532,543.120422 102.542984,543.120422 
	C101.802284,546.104614 101.308350,548.758789 100.484711,551.306458 
	C94.567535,569.609741 88.525574,587.872864 82.678841,606.198364 
	C81.729721,609.173218 81.317810,612.375061 81.064392,615.504944 
	C80.478889,622.736145 83.085831,625.941956 90.228691,627.118164 
	C92.663536,627.519165 95.126938,627.746643 97.770332,628.077576 
	C105.896683,605.866028 113.914520,583.939514 121.942543,562.016663 
	C123.878418,556.730225 125.706779,551.396362 127.901100,546.218384 
	C128.451569,544.919373 130.212967,543.273621 131.441330,543.253967 
	C144.750443,543.041016 158.064224,543.120911 172.593430,543.120911 
	C162.759140,570.260376 153.170700,596.721313 143.404053,623.549011 
z"/>
<path fill="#FEFEFE" opacity="1.000000" stroke="none" 
	d="
M664.743896,547.122559 
	C674.464478,555.216064 675.903137,566.150818 675.474426,577.224670 
	C674.782593,595.095032 665.247131,606.393738 646.588684,611.945251 
	C638.679260,614.298645 630.424561,615.491638 621.495667,617.388550 
	C634.936096,631.360840 648.166016,645.114319 662.422852,659.935303 
	C658.476196,660.336487 655.810608,660.819519 653.141235,660.841614 
	C642.333923,660.931091 631.524414,660.793518 620.717773,660.916931 
	C615.762146,660.973511 611.808167,659.295227 608.183472,655.890320 
	C596.421448,644.841553 584.478088,633.985718 572.590088,623.071350 
	C571.501160,622.071533 570.308899,621.184326 568.481995,619.684326 
	C566.583801,624.448975 564.779297,628.768066 563.136597,633.147827 
	C560.169983,641.057434 557.398987,649.042358 554.294250,656.896240 
	C553.764587,658.236084 551.994507,659.992126 550.771973,660.012329 
	C537.304138,660.235168 523.831299,660.152405 509.708038,660.152405 
	C510.482727,657.381775 510.983948,655.011963 511.800354,652.756226 
	C524.214417,618.455200 536.796326,584.213989 548.986511,549.833862 
	C550.944031,544.313110 553.772522,542.825623 559.380371,542.868530 
	C589.192444,543.096680 619.009888,542.703735 648.819885,543.032166 
	C654.040588,543.089600 659.234741,545.556580 664.743896,547.122559 
M577.958862,591.399902 
	C576.721191,594.757568 575.483521,598.115234 574.245789,601.472900 
	C578.390198,598.971313 581.946838,596.069580 584.919067,592.658508 
	C588.611877,588.420471 592.945557,586.697937 598.513000,586.857117 
	C607.162048,587.104431 615.827393,587.055664 624.478699,586.842346 
	C629.175964,586.726562 631.142212,583.859009 631.304504,578.834900 
	C631.467957,573.772766 628.204041,573.746460 624.691589,573.748413 
	C613.038574,573.754883 601.380615,573.944580 589.735168,573.648438 
	C585.488586,573.540405 583.526001,575.003845 582.452759,579.000854 
	C581.384155,582.980774 579.609619,586.771118 577.958862,591.399902 
z"/>
<path fill="#EC1C24" opacity="1.000000" stroke="none" 
	d="
M364.311646,477.307434 
	C359.497620,483.718781 355.051361,489.967773 350.219543,495.902924 
	C348.968292,497.439911 346.556671,498.735107 344.596130,498.860443 
	C338.625732,499.242249 332.615265,498.982880 326.620514,499.002563 
	C319.749146,499.025116 314.216125,496.207672 310.612640,490.475342 
	C307.621307,485.716736 305.042480,480.642303 302.790497,475.485260 
	C293.215637,453.558716 283.845886,431.542725 274.369415,409.573090 
	C269.706512,398.762970 270.532013,388.490692 277.399689,378.876434 
	C290.850739,360.046021 304.369141,341.263672 317.883270,322.478424 
	C319.022980,320.894196 320.340485,319.437866 322.234558,317.113037 
	C324.956238,322.476196 327.389343,327.107025 329.678741,331.807861 
	C347.805878,369.028778 365.862213,406.284363 384.085968,443.457886 
	C385.773163,446.899536 385.645142,449.268890 383.209167,452.321594 
	C376.772491,460.387787 370.733276,468.771118 364.311646,477.307434 
z"/>
<path fill="#FEFEFE" opacity="1.000000" stroke="none" 
	d="
M286.243591,591.142639 
	C289.795105,589.539551 293.049805,587.105530 296.369781,587.012939 
	C311.488831,586.591248 326.626251,586.828003 343.126801,586.828003 
	C341.177612,589.151001 340.028107,590.803650 338.604340,592.170776 
	C330.563629,599.891663 322.582153,607.683594 314.278595,615.114075 
	C312.384125,616.809326 309.322052,617.946289 306.759674,618.019348 
	C295.774475,618.332886 284.765137,618.427002 273.785828,618.023804 
	C269.133453,617.852966 266.650757,619.109070 265.830231,623.737854 
	C265.495209,625.627625 264.551544,627.409546 263.682220,629.796875 
	C291.457764,629.796875 318.675873,629.796875 346.653564,629.796875 
	C345.774170,632.057312 345.536041,634.039062 344.444366,635.253601 
	C337.255676,643.251465 330.257935,651.494141 322.345795,658.724548 
	C319.921539,660.939941 314.828156,660.764587 310.953552,660.779602 
	C277.472809,660.909607 243.991226,660.833740 210.509918,660.803955 
	C210.199646,660.803650 209.889572,660.594604 209.075684,660.301697 
	C209.710922,657.843689 210.156525,655.260498 211.038452,652.836060 
	C223.617935,618.254700 236.327423,583.720459 248.786057,549.095825 
	C250.257721,545.005737 252.280289,543.427551 256.599365,543.427612 
	C291.568848,543.427734 326.538300,543.209106 361.507904,543.164551 
	C366.611420,543.158081 371.715668,543.719666 377.591827,544.063538 
	C376.438568,546.126831 375.784637,547.820496 374.694794,549.159119 
	C368.917297,556.255554 363.348846,563.570557 357.007721,570.133362 
	C354.799988,572.418213 350.604370,573.783386 347.289703,573.834839 
	C326.310486,574.160889 305.323700,574.000305 284.020111,574.000305 
	C280.597290,583.299561 277.189392,592.558289 273.781494,601.816956 
	C274.054169,601.992859 274.326843,602.168701 274.599518,602.344543 
	C278.391937,598.693054 282.184387,595.041504 286.243591,591.142639 
z"/>
<path fill="#FDFDFE" opacity="1.000000" stroke="none" 
	d="
M776.064026,594.083679 
	C781.739258,578.451355 787.237000,563.166504 793.006653,547.985107 
	C793.697510,546.167114 795.833313,543.634399 797.356018,543.594543 
	C810.604797,543.247681 823.866455,543.394409 838.204773,543.394409 
	C835.504578,550.996643 833.328064,557.381897 830.974670,563.701294 
	C824.377502,581.416077 818.358398,599.387451 810.814392,616.692261 
	C806.501038,626.586426 800.445801,635.995483 793.762634,644.515198 
	C784.723022,656.038940 771.674683,660.754578 757.215759,660.805908 
	C741.744629,660.860840 726.255005,660.671936 710.806946,659.911316 
	C704.429138,659.597351 698.016846,657.937012 691.834717,656.147705 
	C680.882690,652.977905 674.790344,645.030579 674.187195,633.939636 
	C673.761353,626.110535 673.931335,617.769775 676.174133,610.365845 
	C682.559387,589.286682 690.129150,568.565796 697.279175,547.719849 
	C697.808105,546.177429 698.707703,544.762207 699.455872,543.245483 
	C713.524841,543.245483 727.498657,543.245483 742.268005,543.245483 
	C738.274597,555.336853 734.287842,567.052551 730.544922,578.845703 
	C727.135193,589.588867 723.751038,600.351074 720.798340,611.225220 
	C718.069824,621.274109 726.011841,630.410889 736.344360,629.608459 
	C740.636902,629.275146 745.071350,629.456360 749.185852,628.404419 
	C759.220703,625.838989 765.755554,618.909668 769.928894,609.719604 
	C772.187744,604.745422 773.970825,599.555176 776.064026,594.083679 
z"/>
<path fill="#FDFEFE" opacity="1.000000" stroke="none" 
	d="
M358.912659,635.911987 
	C379.537048,609.574463 399.908020,583.488831 420.436218,557.527466 
	C423.715668,553.380066 427.426910,549.463806 431.471619,546.077271 
	C433.559448,544.329163 436.792358,543.229919 439.553680,543.132202 
	C450.196320,542.755493 460.857361,542.876465 471.511597,542.861938 
	C477.321075,542.854065 480.635681,544.974792 481.934631,550.825500 
	C485.343628,566.179932 488.712280,581.562378 491.385986,597.056335 
	C494.689056,616.197021 497.284973,635.460022 500.150574,654.675598 
	C500.386414,656.257080 500.347748,657.879517 500.479126,660.250549 
	C487.712830,660.250549 475.470612,660.169006 463.230743,660.302612 
	C459.780548,660.340332 459.642029,657.786011 459.174866,655.711548 
	C458.012024,650.548523 457.163696,645.314697 455.987610,639.033203 
	C452.388855,643.360840 449.072540,646.748291 446.465729,650.614136 
	C441.681580,657.708984 435.306519,660.995789 426.755585,660.913208 
	C399.459778,660.649536 372.161957,660.593689 344.864990,660.441162 
	C344.382629,660.438477 343.901398,660.230591 342.399445,659.881165 
	C343.272369,657.762207 343.721771,655.562256 344.933777,653.927734 
	C349.389343,647.918701 354.097900,642.097168 358.912659,635.911987 
M449.058105,586.430420 
	C448.899017,584.927307 448.739899,583.424255 448.434601,580.539490 
	C435.847443,597.419739 424.217529,613.016296 411.865753,629.580933 
	C427.264709,629.580933 441.198608,629.580933 455.553314,629.580933 
	C453.387756,615.167603 451.292389,601.221191 449.058105,586.430420 
z"/>
<path fill="#FEFEFE" opacity="1.000000" stroke="none" 
	d="
M876.000000,543.000122 
	C900.488770,542.950378 924.478149,542.978333 948.466064,542.809937 
	C957.182556,542.748718 963.306274,546.480652 967.541382,553.997437 
	C981.142151,578.137146 969.573059,606.212158 941.512756,615.792847 
	C935.195740,617.949707 928.206299,618.853271 921.496216,619.005554 
	C902.858032,619.428528 884.203918,619.152344 865.383911,619.152344 
	C860.811096,631.514709 856.274719,643.435669 852.036499,655.461670 
	C850.887390,658.722351 849.419189,660.276062 845.743530,660.222107 
	C832.830811,660.032654 819.913635,660.148560 806.371155,660.148560 
	C807.115845,657.555786 807.539978,655.652771 808.202087,653.836609 
	C821.084167,618.500183 834.054504,583.195740 846.805359,547.812073 
	C848.089844,544.247498 849.745178,542.816406 853.510742,542.934265 
	C860.834045,543.163330 868.169556,543.000549 876.000000,543.000122 
M916.398926,587.935120 
	C918.062805,587.935120 919.727112,587.956604 921.390564,587.930298 
	C924.355652,587.883362 928.871765,583.664795 928.992310,580.272400 
	C929.134399,576.272644 925.962646,574.582153 922.777222,574.545044 
	C909.659485,574.392334 896.534668,574.574402 883.419678,574.911621 
	C882.186646,574.943359 880.431274,576.695679 879.893311,578.039490 
	C877.062805,585.109375 874.527405,592.298157 871.943298,599.465027 
	C871.627319,600.341553 871.634338,601.334534 871.276062,603.691711 
	C875.932251,599.521484 879.525085,596.417114 882.987000,593.172913 
	C886.941284,589.467407 891.410522,587.599792 896.957886,587.867432 
	C903.100037,588.163757 909.267517,587.935120 916.398926,587.935120 
z"/>
<path fill="#EB1D24" opacity="1.000000" stroke="none" 
	d="
M628.402954,180.400330 
	C614.865723,198.542557 601.550781,216.401627 587.684082,235.000793 
	C586.118225,232.743210 585.098328,231.518814 584.344177,230.148209 
	C574.567749,212.380905 564.913574,194.545547 555.014771,176.846970 
	C552.841858,172.961914 553.151733,169.989792 555.747925,166.473816 
	C569.980286,147.199341 584.035278,127.793983 598.183960,108.457611 
	C599.052063,107.271233 600.201477,106.290703 601.646118,104.764099 
	C604.511902,109.438034 607.315918,113.704262 609.814514,118.142456 
	C618.052856,132.776108 626.065796,147.537933 634.426270,162.100769 
	C636.712463,166.082977 636.906372,169.275406 633.825745,172.798019 
	C631.865540,175.039490 630.343750,177.664291 628.402954,180.400330 
z"/>
<path fill="#040405" opacity="1.000000" stroke="none" 
	d="
M578.051758,591.022217 
	C579.609619,586.771118 581.384155,582.980774 582.452759,579.000854 
	C583.526001,575.003845 585.488586,573.540405 589.735168,573.648438 
	C601.380615,573.944580 613.038574,573.754883 624.691589,573.748413 
	C628.204041,573.746460 631.467957,573.772766 631.304504,578.834900 
	C631.142212,583.859009 629.175964,586.726562 624.478699,586.842346 
	C615.827393,587.055664 607.162048,587.104431 598.513000,586.857117 
	C592.945557,586.697937 588.611877,588.420471 584.919067,592.658508 
	C581.946838,596.069580 578.390198,598.971313 574.245789,601.472900 
	C575.483521,598.115234 576.721191,594.757568 578.051758,591.022217 
z"/>
<path fill="#030404" opacity="1.000000" stroke="none" 
	d="
M449.127563,586.852600 
	C451.292389,601.221191 453.387756,615.167603 455.553314,629.580933 
	C441.198608,629.580933 427.264709,629.580933 411.865753,629.580933 
	C424.217529,613.016296 435.847443,597.419739 448.434601,580.539490 
	C448.739899,583.424255 448.899017,584.927307 449.127563,586.852600 
z"/>
<path fill="#080909" opacity="1.000000" stroke="none" 
	d="
M915.911438,587.935120 
	C909.267517,587.935120 903.100037,588.163757 896.957886,587.867432 
	C891.410522,587.599792 886.941284,589.467407 882.987000,593.172913 
	C879.525085,596.417114 875.932251,599.521484 871.276062,603.691711 
	C871.634338,601.334534 871.627319,600.341553 871.943298,599.465027 
	C874.527405,592.298157 877.062805,585.109375 879.893311,578.039490 
	C880.431274,576.695679 882.186646,574.943359 883.419678,574.911621 
	C896.534668,574.574402 909.659485,574.392334 922.777222,574.545044 
	C925.962646,574.582153 929.134399,576.272644 928.992310,580.272400 
	C928.871765,583.664795 924.355652,587.883362 921.390564,587.930298 
	C919.727112,587.956604 918.062805,587.935120 915.911438,587.935120 
z"/>
</svg>